HIERARCHY
ROOT mixamorig:Hips
{
	OFFSET -0.000008 104.274872 1.554316
	CHANNELS 6 Xposition Yposition Zposition Xrotation Yrotation Zrotation
	JOINT mixamorig:Spine
	{
		OFFSET -0.000005 10.181595 0.131519
		CHANNELS 6 Xposition Yposition Zposition Xrotation Yrotation Zrotation
		JOINT mixamorig:Spine1
		{
			OFFSET -0.000000 9.893959 -1.470707
			CHANNELS 6 Xposition Yposition Zposition Xrotation Yrotation Zrotation
			JOINT mixamorig:Spine2
			{
				OFFSET -0.000000 9.220757 -1.370641
				CHANNELS 6 Xposition Yposition Zposition Xrotation Yrotation Zrotation
				JOINT mixamorig:Neck
				{
					OFFSET 0.000001 16.740417 -2.049036
					CHANNELS 6 Xposition Yposition Zposition Xrotation Yrotation Zrotation
					JOINT mixamorig:Head
					{
						OFFSET 0.000000 9.617874 1.685006
						CHANNELS 6 Xposition Yposition Zposition Xrotation Yrotation Zrotation
						JOINT mixamorig:HeadTop_End
						{
							OFFSET 0.000002 22.037354 7.501101
							CHANNELS 6 Xposition Yposition Zposition Xrotation Yrotation Zrotation
							End Site
							{
								OFFSET 0.000168 2310.654297 -282.823242
							}
						}
					}
				}
				JOINT mixamorig:RightShoulder
				{
					OFFSET -4.569970 11.014908 -2.160885
					CHANNELS 6 Xposition Yposition Zposition Xrotation Yrotation Zrotation
					JOINT mixamorig:RightArm
					{
						OFFSET -10.592851 -0.524811 -2.232101
						CHANNELS 6 Xposition Yposition Zposition Xrotation Yrotation Zrotation
						JOINT mixamorig:RightForeArm
						{
							OFFSET -27.841511 0.000031 -0.000004
							CHANNELS 6 Xposition Yposition Zposition Xrotation Yrotation Zrotation
							JOINT mixamorig:RightHand
							{
								OFFSET -28.328831 -0.000015 0.000015
								CHANNELS 6 Xposition Yposition Zposition Xrotation Yrotation Zrotation
								JOINT mixamorig:RightHandThumb1
								{
									OFFSET -2.464806 -1.573990 2.681852
									CHANNELS 6 Xposition Yposition Zposition Xrotation Yrotation Zrotation
									JOINT mixamorig:RightHandThumb2
									{
										OFFSET -3.215179 -1.872803 1.924282
										CHANNELS 6 Xposition Yposition Zposition Xrotation Yrotation Zrotation
										JOINT mixamorig:RightHandThumb3
										{
											OFFSET -2.654831 -1.527969 1.512609
											CHANNELS 6 Xposition Yposition Zposition Xrotation Yrotation Zrotation
											JOINT mixamorig:RightHandThumb4
											{
												OFFSET -2.018814 -1.152008 1.108052
												CHANNELS 6 Xposition Yposition Zposition Xrotation Yrotation Zrotation
												End Site
												{
													OFFSET -188.809540 -114.533607 132.431396
												}
											}
										}
									}
								}
								JOINT mixamorig:RightHandIndex1
								{
									OFFSET -9.108284 -0.517868 2.259835
									CHANNELS 6 Xposition Yposition Zposition Xrotation Yrotation Zrotation
									JOINT mixamorig:RightHandIndex2
									{
										OFFSET -3.699989 0.000000 0.001215
										CHANNELS 6 Xposition Yposition Zposition Xrotation Yrotation Zrotation
										JOINT mixamorig:RightHandIndex3
										{
											OFFSET -2.850006 0.000031 -0.000522
											CHANNELS 6 Xposition Yposition Zposition Xrotation Yrotation Zrotation
											JOINT mixamorig:RightHandIndex4
											{
												OFFSET -2.772186 -0.000015 -0.000020
												CHANNELS 6 Xposition Yposition Zposition Xrotation Yrotation Zrotation
												End Site
												{
													OFFSET -277.218445 0.000000 -0.050231
												}
											}
										}
									}
								}
								JOINT mixamorig:RightHandMiddle1
								{
									OFFSET -9.532516 -0.000031 -0.000023
									CHANNELS 6 Xposition Yposition Zposition Xrotation Yrotation Zrotation
									JOINT mixamorig:RightHandMiddle2
									{
										OFFSET -3.700005 -0.000015 0.003713
										CHANNELS 6 Xposition Yposition Zposition Xrotation Yrotation Zrotation
										JOINT mixamorig:RightHandMiddle3
										{
											OFFSET -2.949974 0.000015 -0.002054
											CHANNELS 6 Xposition Yposition Zposition Xrotation Yrotation Zrotation
											JOINT mixamorig:RightHandMiddle4
											{
												OFFSET -2.946640 0.000000 -0.000156
												CHANNELS 6 Xposition Yposition Zposition Xrotation Yrotation Zrotation
												End Site
												{
													OFFSET -294.664337 0.000000 -0.113670
												}
											}
										}
									}
								}
								JOINT mixamorig:RightHandRing1
								{
									OFFSET -9.103600 -0.043076 -1.865134
									CHANNELS 6 Xposition Yposition Zposition Xrotation Yrotation Zrotation
									JOINT mixamorig:RightHandRing2
									{
										OFFSET -3.379288 0.000000 -0.001055
										CHANNELS 6 Xposition Yposition Zposition Xrotation Yrotation Zrotation
										JOINT mixamorig:RightHandRing3
										{
											OFFSET -2.889687 -0.000015 0.000379
											CHANNELS 6 Xposition Yposition Zposition Xrotation Yrotation Zrotation
											JOINT mixamorig:RightHandRing4
											{
												OFFSET -2.638809 -0.000015 0.000941
												CHANNELS 6 Xposition Yposition Zposition Xrotation Yrotation Zrotation
												End Site
												{
													OFFSET -263.880371 0.000000 0.516020
												}
											}
										}
									}
								}
								JOINT mixamorig:RightHandPinky1
								{
									OFFSET -8.076683 -0.486710 -3.806280
									CHANNELS 6 Xposition Yposition Zposition Xrotation Yrotation Zrotation
									JOINT mixamorig:RightHandPinky2
									{
										OFFSET -3.600014 -0.000015 -0.003747
										CHANNELS 6 Xposition Yposition Zposition Xrotation Yrotation Zrotation
										JOINT mixamorig:RightHandPinky3
										{
											OFFSET -2.099983 0.000000 -0.005739
											CHANNELS 6 Xposition Yposition Zposition Xrotation Yrotation Zrotation
											JOINT mixamorig:RightHandPinky4
											{
												OFFSET -2.115768 -0.000031 -0.003680
												CHANNELS 6 Xposition Yposition Zposition Xrotation Yrotation Zrotation
												End Site
												{
													OFFSET -211.577087 0.000000 -0.350686
												}
											}
										}
									}
								}
							}
						}
					}
				}
				JOINT mixamorig:LeftShoulder
				{
					OFFSET 4.570447 11.014725 -2.160855
					CHANNELS 6 Xposition Yposition Zposition Xrotation Yrotation Zrotation
					JOINT mixamorig:LeftArm
					{
						OFFSET 10.592371 -0.524597 -2.232119
						CHANNELS 6 Xposition Yposition Zposition Xrotation Yrotation Zrotation
						JOINT mixamorig:LeftForeArm
						{
							OFFSET 27.841532 -0.000031 0.000026
							CHANNELS 6 Xposition Yposition Zposition Xrotation Yrotation Zrotation
							JOINT mixamorig:LeftHand
							{
								OFFSET 28.328846 -0.000061 0.000022
								CHANNELS 6 Xposition Yposition Zposition Xrotation Yrotation Zrotation
								JOINT mixamorig:LeftHandThumb1
								{
									OFFSET 2.466141 -1.576172 2.681732
									CHANNELS 6 Xposition Yposition Zposition Xrotation Yrotation Zrotation
									JOINT mixamorig:LeftHandThumb2
									{
										OFFSET 3.217812 -1.872070 1.916482
										CHANNELS 6 Xposition Yposition Zposition Xrotation Yrotation Zrotation
										JOINT mixamorig:LeftHandThumb3
										{
											OFFSET 2.656029 -1.528778 1.514513
											CHANNELS 6 Xposition Yposition Zposition Xrotation Yrotation Zrotation
											JOINT mixamorig:LeftHandThumb4
											{
												OFFSET 2.020889 -1.154053 1.115139
												CHANNELS 6 Xposition Yposition Zposition Xrotation Yrotation Zrotation
												End Site
												{
													OFFSET 190.885437 -115.081749 130.048782
												}
											}
										}
									}
								}
								JOINT mixamorig:LeftHandIndex1
								{
									OFFSET 9.109314 -0.518021 2.259871
									CHANNELS 6 Xposition Yposition Zposition Xrotation Yrotation Zrotation
									JOINT mixamorig:LeftHandIndex2
									{
										OFFSET 3.699989 0.000000 -0.000322
										CHANNELS 6 Xposition Yposition Zposition Xrotation Yrotation Zrotation
										JOINT mixamorig:LeftHandIndex3
										{
											OFFSET 2.850006 0.000000 0.000352
											CHANNELS 6 Xposition Yposition Zposition Xrotation Yrotation Zrotation
											JOINT mixamorig:LeftHandIndex4
											{
												OFFSET 2.774864 -0.000031 -0.000027
												CHANNELS 6 Xposition Yposition Zposition Xrotation Yrotation Zrotation
												End Site
												{
													OFFSET 277.486267 0.000000 -0.009857
												}
											}
										}
									}
								}
								JOINT mixamorig:LeftHandMiddle1
								{
									OFFSET 9.533394 0.000061 0.000044
									CHANNELS 6 Xposition Yposition Zposition Xrotation Yrotation Zrotation
									JOINT mixamorig:LeftHandMiddle2
									{
										OFFSET 3.699989 -0.000015 -0.000231
										CHANNELS 6 Xposition Yposition Zposition Xrotation Yrotation Zrotation
										JOINT mixamorig:LeftHandMiddle3
										{
											OFFSET 2.949997 -0.000015 -0.000059
											CHANNELS 6 Xposition Yposition Zposition Xrotation Yrotation Zrotation
											JOINT mixamorig:LeftHandMiddle4
											{
												OFFSET 2.952896 0.000031 0.000063
												CHANNELS 6 Xposition Yposition Zposition Xrotation Yrotation Zrotation
												End Site
												{
													OFFSET 295.289337 0.000000 0.022810
												}
											}
										}
									}
								}
								JOINT mixamorig:LeftHandRing1
								{
									OFFSET 9.104523 -0.042999 -1.865074
									CHANNELS 6 Xposition Yposition Zposition Xrotation Yrotation Zrotation
									JOINT mixamorig:LeftHandRing2
									{
										OFFSET 3.150009 -0.000031 0.000043
										CHANNELS 6 Xposition Yposition Zposition Xrotation Yrotation Zrotation
										JOINT mixamorig:LeftHandRing3
										{
											OFFSET 2.949982 -0.000015 0.000040
											CHANNELS 6 Xposition Yposition Zposition Xrotation Yrotation Zrotation
											JOINT mixamorig:LeftHandRing4
											{
												OFFSET 2.644348 0.000000 0.000057
												CHANNELS 6 Xposition Yposition Zposition Xrotation Yrotation Zrotation
												End Site
												{
													OFFSET 264.434631 0.000000 0.012105
												}
											}
										}
									}
								}
								JOINT mixamorig:LeftHandPinky1
								{
									OFFSET 8.077789 -0.486847 -3.806259
									CHANNELS 6 Xposition Yposition Zposition Xrotation Yrotation Zrotation
									JOINT mixamorig:LeftHandPinky2
									{
										OFFSET 3.599953 0.000031 0.014727
										CHANNELS 6 Xposition Yposition Zposition Xrotation Yrotation Zrotation
										JOINT mixamorig:LeftHandPinky3
										{
											OFFSET 2.100021 0.000015 0.007705
											CHANNELS 6 Xposition Yposition Zposition Xrotation Yrotation Zrotation
											JOINT mixamorig:LeftHandPinky4
											{
												OFFSET 2.125504 0.000031 0.007517
												CHANNELS 6 Xposition Yposition Zposition Xrotation Yrotation Zrotation
												End Site
												{
													OFFSET 212.550781 0.000000 0.625752
												}
											}
										}
									}
								}
							}
						}
					}
				}
			}
		}
	}
	JOINT mixamorig:RightUpLeg
	{
		OFFSET -8.207787 -6.751648 -1.599560
		CHANNELS 6 Xposition Yposition Zposition Xrotation Yrotation Zrotation
		JOINT mixamorig:RightLeg
		{
			OFFSET -0.000002 -44.370117 0.345942
			CHANNELS 6 Xposition Yposition Zposition Xrotation Yrotation Zrotation
			JOINT mixamorig:RightFoot
			{
				OFFSET 0.000003 -44.423679 -3.043532
				CHANNELS 6 Xposition Yposition Zposition Xrotation Yrotation Zrotation
				JOINT mixamorig:RightToeBase
				{
					OFFSET -0.000002 -8.728671 10.710558
					CHANNELS 6 Xposition Yposition Zposition Xrotation Yrotation Zrotation
					JOINT mixamorig:RightToe_End
					{
						OFFSET -0.000001 -0.000679 9.278119
						CHANNELS 6 Xposition Yposition Zposition Xrotation Yrotation Zrotation
						End Site
						{
							OFFSET 0.000000 -0.067690 927.812134
						}
					}
				}
			}
		}
	}
	JOINT mixamorig:LeftUpLeg
	{
		OFFSET 8.207793 -6.751686 -1.599556
		CHANNELS 6 Xposition Yposition Zposition Xrotation Yrotation Zrotation
		JOINT mixamorig:LeftLeg
		{
			OFFSET -0.000004 -44.370014 0.346954
			CHANNELS 6 Xposition Yposition Zposition Xrotation Yrotation Zrotation
			JOINT mixamorig:LeftFoot
			{
				OFFSET -0.000001 -44.423672 -3.044401
				CHANNELS 6 Xposition Yposition Zposition Xrotation Yrotation Zrotation
				JOINT mixamorig:LeftToeBase
				{
					OFFSET -0.000002 -8.728669 10.710558
					CHANNELS 6 Xposition Yposition Zposition Xrotation Yrotation Zrotation
					JOINT mixamorig:LeftToe_End
					{
						OFFSET -0.000003 -0.000679 9.278133
						CHANNELS 6 Xposition Yposition Zposition Xrotation Yrotation Zrotation
						End Site
						{
							OFFSET 0.000000 -0.068021 927.813477
						}
					}
				}
			}
		}
	}
}
MOTION
Frames: 3
Frame Time: 0.033333
0.000006 104.270477 1.554256 0.000010 0.000003 -0.000113 -0.000005 10.181587 0.131522 0.000001 -0.000003 0.000084 -0.000000 9.893967 -1.470711 0.000001 0.000000 -0.000000 -0.000000 9.220802 -1.370642 0.000000 -0.000000 -0.000000 0.000001 16.740433 -2.049030 0.000000 -0.000000 -0.000000 0.000000 9.617859 1.685014 0.000000 0.000000 0.000000 0.000002 22.037384 7.501101 0.000000 -0.000000 0.000000 -4.569968 11.014880 -2.160881 0.000008 0.000001 -0.000038 -10.592881 -0.524710 -2.231971 72.394596 16.349542 -12.002653 -27.841530 0.000034 0.000545 -56.312953 107.539717 72.294383 -28.328833 0.000020 0.000022 -0.000319 -0.000044 0.000009 -2.464411 -1.573787 2.682336 -46.926593 -164.610797 -7.325665 -3.215243 -1.872559 1.924649 153.029214 32.294299 9.690653 -2.654949 -1.527884 1.513077 147.870536 27.166842 -33.041604 -2.018830 -1.152007 1.108070 0.000003 0.000003 0.000000 -9.108359 -0.517556 2.260119 96.376326 16.190193 -18.122293 -3.700083 0.000312 0.001503 93.901516 14.187656 -15.151513 -2.850097 0.000372 -0.000263 92.795292 10.865432 -11.404410 -2.772168 0.000001 -0.000024 0.000003 -0.000000 -0.000001 -9.532568 0.000272 0.000232 91.082198 14.438868 -14.853911 -3.700069 0.000323 0.003959 91.227825 11.979970 -12.140991 -2.950060 0.000346 -0.001836 93.593584 11.091414 -11.797397 -2.946618 0.000003 -0.000155 -0.000000 0.000001 0.000000 -9.103681 -0.042765 -1.864874 90.071993 15.916948 -15.892513 -3.379333 0.000327 -0.000823 90.797652 9.018879 -9.162234 -2.889760 0.000358 0.000637 97.324643 5.942338 -6.804336 -2.638817 -0.000001 0.000938 0.000002 -0.000000 0.000000 -8.076715 -0.486396 -3.806026 85.357851 15.228156 -13.917260 -3.600027 0.000292 -0.003529 87.204351 6.127346 -5.508178 -2.099998 0.000308 -0.005495 91.565564 3.225838 -3.097681 -2.115753 -0.000042 -0.003676 -0.000000 0.000000 -0.000006 4.570446 11.014691 -2.160851 -0.000018 0.000010 -0.000021 10.592520 -0.524516 -2.232404 70.499430 -59.410140 43.917758 27.841745 -0.000054 -0.000105 234.135442 -76.847298 245.578851 28.328835 -0.000027 0.000015 0.000023 -0.000087 -0.000001 2.466186 -1.576126 2.681882 129.942341 177.265880 -166.447858 3.217850 -1.871974 1.916547 272.912940 30.204746 33.282552 2.656043 -1.528767 1.514610 248.859281 41.497928 53.784905 2.020895 -1.154078 1.115147 -0.000000 0.000002 0.000004 9.109227 -0.517715 2.260075 224.653774 -10.511020 334.767324 3.699942 0.000315 -0.000121 -133.409413 -6.646165 -15.387293 2.850001 0.000354 0.000528 -141.300153 -0.571380 -1.623906 2.774872 -0.000043 -0.000021 -0.000000 0.000000 0.000003 9.533349 0.000357 0.000264 230.277588 -9.170409 340.614922 3.699986 0.000019 -0.000332 24.593580 16.459260 -3.611541 2.949999 0.000092 -0.000221 -306.733906 7.338697 -3.682984 2.952867 -0.000015 0.000052 -0.000000 -0.000001 -0.000000 9.104503 -0.042724 -1.864842 235.925772 -7.172458 346.531615 3.149933 0.000027 -0.000099 27.469937 37.180189 -9.399589 2.949931 0.000113 -0.000150 231.303537 -200.724875 169.963411 2.644312 0.000034 0.000066 -0.000001 -0.000000 0.000005 8.077768 -0.486610 -3.806023 -117.425172 -5.456052 -9.646884 3.599901 0.000021 0.014608 20.359747 32.063688 -5.962514 2.099957 0.000145 0.007519 56.194763 17.965359 -9.520023 2.125508 0.000001 0.007529 0.000001 -0.000003 0.000001 -8.207786 -6.751667 -1.599560 -0.077001 -0.000003 0.000080 -0.000002 -44.370110 0.345938 0.153719 -0.000000 -0.000000 0.000000 -44.423679 -3.043532 -0.076700 0.000000 -0.000002 -0.000006 -8.728667 10.710559 -0.000009 -0.000000 -0.000000 -0.000001 -0.000679 9.278123 0.000000 -0.000000 -0.000000 8.207792 -6.751710 -1.599556 -0.074518 -0.000003 0.000081 -0.000002 -44.370014 0.346960 0.148822 0.000002 0.000000 -0.000001 -44.423664 -3.044403 -0.074314 0.000000 -0.000002 -0.000004 -8.728671 10.710558 0.000007 -0.000000 -0.000000 0.000000 -0.000680 9.278137 -0.000000 0.000000 -0.000001 
0.000006 104.270477 1.554256 0.000010 0.000003 -0.000113 -0.000005 10.181587 0.131522 0.000001 -0.000003 0.000084 -0.000000 9.893967 -1.470711 0.000001 0.000000 -0.000000 -0.000000 9.220802 -1.370642 0.000000 -0.000000 -0.000000 0.000001 16.740433 -2.049030 0.000000 -0.000000 -0.000000 0.000000 9.617859 1.685014 0.000000 0.000000 0.000000 0.000002 22.037384 7.501101 0.000000 -0.000000 0.000000 -4.569968 11.014880 -2.160881 0.000008 0.000001 -0.000038 -10.592876 -0.524701 -2.231997 72.531589 12.803529 -9.411445 -27.841532 0.000003 0.000529 -56.601422 108.424977 73.514767 -28.328814 0.000006 0.000023 -0.000324 -0.000046 0.000007 -2.464419 -1.573767 2.682324 -48.012917 -165.733748 -10.130484 -3.215281 -1.872562 1.924646 152.919616 32.381029 10.388378 -2.654951 -1.527887 1.513070 147.852955 27.138179 -33.354211 -2.018819 -1.152004 1.108063 -0.000001 -0.000006 -0.000001 -9.108386 -0.517551 2.260109 96.125050 15.956977 -17.785341 -3.700072 0.000312 0.001500 93.849067 14.030809 -14.970439 -2.850079 0.000353 -0.000263 93.087986 10.742008 -11.332383 -2.772154 -0.000016 -0.000024 0.000003 -0.000000 -0.000001 -9.532583 0.000267 0.000227 91.299699 14.458032 -14.929402 -3.700067 0.000321 0.003955 91.592844 11.946379 -12.183546 -2.950059 0.000340 -0.001828 94.100609 10.995733 -11.799121 -2.946617 0.000002 -0.000157 0.000006 -0.000000 0.000000 -9.103704 -0.042768 -1.864888 90.195407 16.012660 -16.022328 -3.379330 0.000323 -0.000822 91.192144 9.135784 -9.344637 -2.889764 0.000351 0.000633 97.688200 5.920679 -6.823157 -2.638804 -0.000013 0.000949 -0.000002 0.000000 0.000001 -8.076742 -0.486394 -3.806047 85.249661 15.323241 -13.978792 -3.600039 0.000271 -0.003541 87.304216 6.193087 -5.580206 -2.100014 0.000330 -0.005496 91.513463 3.176059 -3.043925 -2.115778 -0.000041 -0.003679 -0.000002 -0.000001 -0.000005 4.570446 11.014691 -2.160851 -0.000018 0.000010 -0.000021 10.592529 -0.524529 -2.232398 70.685320 -60.903875 45.265081 27.841745 -0.000047 -0.000106 235.460772 -76.603201 247.295441 28.328833 -0.000026 0.000021 0.000026 -0.000090 -0.000000 2.466166 -1.576154 2.681904 128.265912 179.753094 -166.039631 3.217840 -1.871974 1.916542 274.667807 30.213448 32.337247 2.656054 -1.528781 1.514607 247.621869 44.658365 56.300918 2.020890 -1.154067 1.115164 -0.000000 0.000003 0.000006 9.109249 -0.517743 2.260086 227.774692 -10.283003 337.047569 3.699981 0.000314 -0.000128 -133.851709 -3.175653 -7.476341 2.850025 0.000357 0.000533 -139.368412 -0.118436 -0.316968 2.774884 -0.000046 -0.000033 -0.000000 0.000000 0.000001 9.533321 0.000330 0.000275 231.402055 -10.929073 337.526721 3.699979 0.000017 -0.000331 25.976999 15.088583 -3.499633 2.949986 0.000090 -0.000225 -309.404673 11.450886 -5.425421 2.952873 -0.000015 0.000050 -0.000000 -0.000001 0.000000 9.104484 -0.042752 -1.864837 238.477038 -8.779319 344.380406 3.149940 0.000071 -0.000114 28.738209 34.003673 -8.957986 2.949910 0.000122 -0.000147 231.689743 -203.936526 168.275248 2.644313 0.000043 0.000062 0.000002 -0.000003 -0.000001 8.077761 -0.486627 -3.806022 -115.124860 -5.101934 -8.678246 3.599904 0.000056 0.014600 24.068321 31.927924 -7.022530 2.099946 0.000139 0.007505 56.558041 21.724421 -11.678590 2.125493 -0.000000 0.007517 -0.000002 -0.000001 -0.000002 -8.207786 -6.751667 -1.599560 -0.077001 -0.000003 0.000080 -0.000002 -44.370110 0.345938 0.153719 -0.000000 -0.000000 0.000000 -44.423679 -3.043532 -0.076700 0.000000 -0.000002 -0.000006 -8.728667 10.710559 -0.000009 -0.000000 -0.000000 -0.000001 -0.000679 9.278123 0.000000 -0.000000 -0.000000 8.207792 -6.751710 -1.599556 -0.074518 -0.000003 0.000081 -0.000002 -44.370014 0.346960 0.148822 0.000002 0.000000 -0.000001 -44.423664 -3.044403 -0.074314 0.000000 -0.000002 -0.000004 -8.728671 10.710558 0.000007 -0.000000 -0.000000 0.000000 -0.000680 9.278137 -0.000000 0.000000 -0.000001 
0.000006 104.270477 1.554256 0.000010 0.000003 -0.000113 -0.000005 10.181587 0.131522 0.000001 -0.000003 0.000084 -0.000000 9.893967 -1.470711 0.000001 0.000000 -0.000000 -0.000000 9.220802 -1.370642 0.000000 -0.000000 -0.000000 0.000001 16.740433 -2.049030 0.000000 -0.000000 -0.000000 0.000000 9.617859 1.685014 0.000000 0.000000 0.000000 0.000002 22.037384 7.501101 0.000000 -0.000000 0.000000 -4.569968 11.014880 -2.160881 0.000008 0.000001 -0.000038 -10.592884 -0.524714 -2.231954 72.514950 16.432691 -12.090491 -27.841524 0.000000 0.000517 -56.861776 108.172882 73.558767 -28.328850 0.000022 0.000031 -0.000323 -0.000044 0.000006 -2.464425 -1.573758 2.682313 -48.131944 -165.126203 -10.489670 -3.215264 -1.872570 1.924635 151.980219 32.528820 12.563186 -2.654974 -1.527877 1.513079 147.322809 27.255767 -33.058590 -2.018828 -1.151996 1.108063 -0.000003 -0.000003 0.000006 -9.108394 -0.517555 2.260119 95.760372 15.661743 -17.348397 -3.700078 0.000323 0.001490 93.638950 13.898971 -14.775980 -2.850062 0.000357 -0.000263 93.162605 10.702235 -11.305090 -2.772146 -0.000014 -0.000024 0.000007 -0.000000 -0.000001 -9.532598 0.000273 0.000226 91.556603 14.164509 -14.693974 -3.700075 0.000324 0.003945 91.689320 11.970859 -12.229101 -2.950067 0.000319 -0.001813 94.176083 11.026873 -11.848043 -2.946624 0.000001 -0.000155 -0.000004 -0.000000 -0.000000 -9.103695 -0.042744 -1.864884 90.416378 15.799346 -15.868700 -3.379314 0.000318 -0.000820 91.304780 9.018702 -9.243170 -2.889751 0.000350 0.000638 97.855656 5.805417 -6.711028 -2.638809 -0.000016 0.000936 -0.000002 -0.000000 0.000000 -8.076742 -0.486375 -3.806039 85.415764 15.128804 -13.839438 -3.600011 0.000297 -0.003541 87.204297 5.810134 -5.207475 -2.100008 0.000324 -0.005484 91.504522 2.844613 -2.704315 -2.115770 -0.000042 -0.003677 0.000002 -0.000001 -0.000005 4.570446 11.014691 -2.160851 -0.000018 0.000010 -0.000021 10.592525 -0.524522 -2.232400 71.359836 -61.875189 46.572195 27.841743 -0.000055 -0.000095 236.842875 -76.290925 249.139018 28.328833 -0.000013 0.000016 0.000022 -0.000089 -0.000000 2.466166 -1.576164 2.681871 130.942513 174.118406 -166.721735 3.217836 -1.871966 1.916554 275.240805 30.001230 31.966955 2.656037 -1.528777 1.514604 262.108018 36.023125 42.343748 2.020895 -1.154067 1.115151 0.000007 0.000006 0.000001 9.109217 -0.517728 2.260069 223.568880 -13.403789 327.246193 3.700048 0.000087 -0.000442 -301.825622 -20.277703 11.373126 2.850024 0.000088 0.000217 -312.781355 -0.574496 0.250622 2.774887 -0.000017 -0.000014 -0.000003 -0.000002 0.000000 9.533340 0.000355 0.000266 230.142077 -9.302777 340.279724 3.699985 0.000090 -0.000387 51.262957 9.780553 -4.702275 2.950002 0.000103 -0.000216 -303.026752 5.176616 -2.809269 2.952865 -0.000029 0.000067 0.000004 -0.000000 0.000000 9.104487 -0.042740 -1.864836 237.137392 -7.064722 347.061829 3.149933 0.000119 -0.000146 45.090966 33.094285 -14.062974 2.949926 0.000140 -0.000155 233.848028 -199.987898 169.772439 2.644325 0.000032 0.000052 -0.000000 0.000000 -0.000000 8.077759 -0.486617 -3.806010 -116.197377 -4.171377 -7.383040 3.599883 0.000066 0.014563 37.138324 32.036289 -11.021726 2.099927 0.000121 0.007504 57.958479 20.921032 -11.558602 2.125501 -0.000001 0.007516 0.000001 0.000004 -0.000002 -8.207786 -6.751667 -1.599560 -0.077001 -0.000003 0.000080 -0.000002 -44.370110 0.345938 0.153719 -0.000000 -0.000000 0.000000 -44.423679 -3.043532 -0.076700 0.000000 -0.000002 -0.000006 -8.728667 10.710559 -0.000009 -0.000000 -0.000000 -0.000001 -0.000679 9.278123 0.000000 -0.000000 -0.000000 8.207792 -6.751710 -1.599556 -0.074518 -0.000003 0.000081 -0.000002 -44.370014 0.346960 0.148822 0.000002 0.000000 -0.000001 -44.423664 -3.044403 -0.074314 0.000000 -0.000002 -0.000004 -8.728671 10.710558 0.000007 -0.000000 -0.000000 0.000000 -0.000680 9.278137 -0.000000 0.000000 -0.000001 
